ISO-10303-21;
HEADER;
/* Generated by software containing ST-Developer
 * from STEP Tools, Inc. (www.steptools.com) 
 */

FILE_DESCRIPTION(
/* description */ (''),
/* implementation_level */ '2;1');

FILE_NAME(
/* name */ 'CAP.step',
/* time_stamp */ '2026-06-06T14:21:03+02:00',
/* author */ ('szymo'),
/* organization */ (''),
/* preprocessor_version */ 'ST-DEVELOPER v20.1',
/* originating_system */ 'Autodesk Inventor 2026',
/* authorisation */ '');

FILE_SCHEMA (('AUTOMOTIVE_DESIGN { 1 0 10303 214 3 1 1 }'));
ENDSEC;

DATA;
#10=MECHANICAL_DESIGN_GEOMETRIC_PRESENTATION_REPRESENTATION('',(#13),#1301);
#11=SHAPE_REPRESENTATION_RELATIONSHIP('SRR','None',#1308,#12);
#12=ADVANCED_BREP_SHAPE_REPRESENTATION('',(#14),#1300);
#13=STYLED_ITEM('',(#1317),#14);
#14=MANIFOLD_SOLID_BREP('Solid1',#708);
#15=FACE_BOUND('',#140,.T.);
#16=FACE_BOUND('',#147,.T.);
#17=ELLIPSE('',#770,7.07106781186548,5.);
#18=ELLIPSE('',#772,7.07106781186548,5.);
#19=ELLIPSE('',#774,7.07106781186547,5.);
#20=ELLIPSE('',#787,7.07106781186547,5.);
#21=TOROIDAL_SURFACE('',#750,4.5,1.5);
#22=TOROIDAL_SURFACE('',#755,4.5,1.5);
#23=TOROIDAL_SURFACE('',#762,4.5,1.5);
#24=TOROIDAL_SURFACE('',#764,4.5,1.5);
#25=PLANE('',#740);
#26=PLANE('',#747);
#27=PLANE('',#759);
#28=PLANE('',#766);
#29=PLANE('',#767);
#30=PLANE('',#768);
#31=PLANE('',#769);
#32=PLANE('',#771);
#33=PLANE('',#773);
#34=PLANE('',#775);
#35=PLANE('',#781);
#36=PLANE('',#783);
#37=PLANE('',#789);
#38=PLANE('',#794);
#39=PLANE('',#795);
#40=PLANE('',#796);
#41=PLANE('',#799);
#42=PLANE('',#802);
#43=PLANE('',#803);
#44=CYLINDRICAL_SURFACE('',#735,1.5);
#45=CYLINDRICAL_SURFACE('',#738,0.7835);
#46=CYLINDRICAL_SURFACE('',#744,1.2);
#47=CYLINDRICAL_SURFACE('',#753,1.5);
#48=CYLINDRICAL_SURFACE('',#757,3.);
#49=CYLINDRICAL_SURFACE('',#760,3.);
#50=CYLINDRICAL_SURFACE('',#784,5.);
#51=CYLINDRICAL_SURFACE('',#786,5.);
#52=CYLINDRICAL_SURFACE('',#790,5.);
#53=CYLINDRICAL_SURFACE('',#792,5.);
#54=CYLINDRICAL_SURFACE('',#797,2.4);
#55=CYLINDRICAL_SURFACE('',#800,3.);
#56=B_SPLINE_CURVE_WITH_KNOTS('',3,(#1045,#1046,#1047,#1048,#1049,#1050),
 .UNSPECIFIED.,.F.,.F.,(4,1,1,4),(-2.40187204455632,-1.92697163440694,-1.45207122425755,
-0.739720609033469),.UNSPECIFIED.);
#57=B_SPLINE_CURVE_WITH_KNOTS('',3,(#1051,#1052,#1053,#1054,#1055,#1056),
 .UNSPECIFIED.,.F.,.F.,(4,1,1,4),(0.739720609033469,1.45207122425755,1.92697163440694,
2.40187204455632),.UNSPECIFIED.);
#58=B_SPLINE_CURVE_WITH_KNOTS('',3,(#1084,#1085,#1086,#1087,#1088,#1089,
#1090,#1091,#1092,#1093),.UNSPECIFIED.,.F.,.F.,(4,2,2,2,4),(0.878571288522132,
0.888277361967892,0.947183519094748,1.0060896762216,1.01579574966736),
 .UNSPECIFIED.);
#59=B_SPLINE_CURVE_WITH_KNOTS('',3,(#1112,#1113,#1114,#1115,#1116,#1117),
 .UNSPECIFIED.,.F.,.F.,(4,2,4),(0.88449581032241,0.98326191664232,1.20179500991812),
 .UNSPECIFIED.);
#60=B_SPLINE_CURVE_WITH_KNOTS('',3,(#1121,#1122,#1123,#1124,#1125,#1126),
 .UNSPECIFIED.,.F.,.F.,(4,2,4),(0.794353140913207,0.836467441715483,0.935001124936251),
 .UNSPECIFIED.);
#61=B_SPLINE_CURVE_WITH_KNOTS('',3,(#1133,#1134,#1135,#1136,#1137,#1138),
 .UNSPECIFIED.,.F.,.F.,(4,2,4),(0.,0.0985336832207675,0.140647984023044),
 .UNSPECIFIED.);
#62=B_SPLINE_CURVE_WITH_KNOTS('',3,(#1141,#1142,#1143,#1144,#1145,#1146),
 .UNSPECIFIED.,.F.,.F.,(4,2,4),(0.,0.218533093275797,0.317299199595707),
 .UNSPECIFIED.);
#63=B_SPLINE_CURVE_WITH_KNOTS('',3,(#1160,#1161,#1162,#1163,#1164,#1165),
 .UNSPECIFIED.,.F.,.F.,(4,2,4),(0.88449581032241,0.98326191664232,1.20179500991812),
 .UNSPECIFIED.);
#64=B_SPLINE_CURVE_WITH_KNOTS('',3,(#1168,#1169,#1170,#1171,#1172,#1173),
 .UNSPECIFIED.,.F.,.F.,(4,2,4),(0.794353140913207,0.836467441715484,0.935001124936251),
 .UNSPECIFIED.);
#65=B_SPLINE_CURVE_WITH_KNOTS('',3,(#1177,#1178,#1179,#1180,#1181,#1182),
 .UNSPECIFIED.,.F.,.F.,(4,2,4),(0.,0.0985336832207684,0.140647984023045),
 .UNSPECIFIED.);
#66=B_SPLINE_CURVE_WITH_KNOTS('',3,(#1184,#1185,#1186,#1187,#1188,#1189),
 .UNSPECIFIED.,.F.,.F.,(4,2,4),(0.,0.218533093275797,0.317299199595707),
 .UNSPECIFIED.);
#67=B_SPLINE_SURFACE_WITH_KNOTS('',3,3,((#1021,#1022,#1023,#1024,#1025,
#1026),(#1027,#1028,#1029,#1030,#1031,#1032),(#1033,#1034,#1035,#1036,#1037,
#1038),(#1039,#1040,#1041,#1042,#1043,#1044)),.UNSPECIFIED.,.F.,.F.,.F.,
(4,4),(4,1,1,4),(0.,1.),(0.739720609033469,1.45207122425755,1.92697163440694,
2.40187204455632),.UNSPECIFIED.);
#68=FACE_OUTER_BOUND('',#107,.T.);
#69=FACE_OUTER_BOUND('',#108,.T.);
#70=FACE_OUTER_BOUND('',#109,.T.);
#71=FACE_OUTER_BOUND('',#110,.T.);
#72=FACE_OUTER_BOUND('',#111,.T.);
#73=FACE_OUTER_BOUND('',#112,.T.);
#74=FACE_OUTER_BOUND('',#113,.T.);
#75=FACE_OUTER_BOUND('',#114,.T.);
#76=FACE_OUTER_BOUND('',#115,.T.);
#77=FACE_OUTER_BOUND('',#116,.T.);
#78=FACE_OUTER_BOUND('',#117,.T.);
#79=FACE_OUTER_BOUND('',#118,.T.);
#80=FACE_OUTER_BOUND('',#119,.T.);
#81=FACE_OUTER_BOUND('',#120,.T.);
#82=FACE_OUTER_BOUND('',#121,.T.);
#83=FACE_OUTER_BOUND('',#122,.T.);
#84=FACE_OUTER_BOUND('',#123,.T.);
#85=FACE_OUTER_BOUND('',#124,.T.);
#86=FACE_OUTER_BOUND('',#125,.T.);
#87=FACE_OUTER_BOUND('',#126,.T.);
#88=FACE_OUTER_BOUND('',#127,.T.);
#89=FACE_OUTER_BOUND('',#128,.T.);
#90=FACE_OUTER_BOUND('',#129,.T.);
#91=FACE_OUTER_BOUND('',#130,.T.);
#92=FACE_OUTER_BOUND('',#131,.T.);
#93=FACE_OUTER_BOUND('',#132,.T.);
#94=FACE_OUTER_BOUND('',#133,.T.);
#95=FACE_OUTER_BOUND('',#134,.T.);
#96=FACE_OUTER_BOUND('',#135,.T.);
#97=FACE_OUTER_BOUND('',#136,.T.);
#98=FACE_OUTER_BOUND('',#137,.T.);
#99=FACE_OUTER_BOUND('',#138,.T.);
#100=FACE_OUTER_BOUND('',#139,.T.);
#101=FACE_OUTER_BOUND('',#141,.T.);
#102=FACE_OUTER_BOUND('',#142,.T.);
#103=FACE_OUTER_BOUND('',#143,.T.);
#104=FACE_OUTER_BOUND('',#144,.T.);
#105=FACE_OUTER_BOUND('',#145,.T.);
#106=FACE_OUTER_BOUND('',#146,.T.);
#107=EDGE_LOOP('',(#460,#461,#462,#463,#464));
#108=EDGE_LOOP('',(#465,#466,#467,#468));
#109=EDGE_LOOP('',(#469,#470,#471,#472,#473,#474));
#110=EDGE_LOOP('',(#475,#476,#477,#478,#479,#480));
#111=EDGE_LOOP('',(#481));
#112=EDGE_LOOP('',(#482,#483,#484,#485));
#113=EDGE_LOOP('',(#486,#487,#488,#489,#490,#491));
#114=EDGE_LOOP('',(#492,#493,#494,#495,#496,#497,#498,#499,#500));
#115=EDGE_LOOP('',(#501,#502,#503,#504,#505));
#116=EDGE_LOOP('',(#506,#507,#508,#509,#510,#511));
#117=EDGE_LOOP('',(#512,#513,#514,#515,#516));
#118=EDGE_LOOP('',(#517,#518,#519,#520));
#119=EDGE_LOOP('',(#521,#522,#523,#524));
#120=EDGE_LOOP('',(#525,#526,#527,#528));
#121=EDGE_LOOP('',(#529,#530,#531,#532,#533));
#122=EDGE_LOOP('',(#534,#535,#536,#537,#538));
#123=EDGE_LOOP('',(#539,#540,#541,#542,#543,#544,#545,#546));
#124=EDGE_LOOP('',(#547,#548,#549,#550,#551,#552,#553,#554));
#125=EDGE_LOOP('',(#555,#556,#557,#558,#559,#560,#561,#562));
#126=EDGE_LOOP('',(#563,#564,#565,#566,#567,#568));
#127=EDGE_LOOP('',(#569,#570,#571,#572,#573));
#128=EDGE_LOOP('',(#574,#575,#576,#577,#578,#579));
#129=EDGE_LOOP('',(#580,#581,#582,#583));
#130=EDGE_LOOP('',(#584,#585,#586,#587,#588,#589));
#131=EDGE_LOOP('',(#590,#591,#592,#593,#594,#595,#596,#597));
#132=EDGE_LOOP('',(#598,#599,#600,#601));
#133=EDGE_LOOP('',(#602,#603,#604,#605));
#134=EDGE_LOOP('',(#606,#607,#608,#609));
#135=EDGE_LOOP('',(#610,#611,#612,#613,#614));
#136=EDGE_LOOP('',(#615,#616,#617,#618));
#137=EDGE_LOOP('',(#619,#620,#621,#622));
#138=EDGE_LOOP('',(#623,#624,#625,#626));
#139=EDGE_LOOP('',(#627,#628,#629,#630));
#140=EDGE_LOOP('',(#631));
#141=EDGE_LOOP('',(#632,#633,#634,#635));
#142=EDGE_LOOP('',(#636,#637,#638,#639,#640));
#143=EDGE_LOOP('',(#641,#642,#643,#644));
#144=EDGE_LOOP('',(#645,#646,#647,#648));
#145=EDGE_LOOP('',(#649,#650,#651,#652));
#146=EDGE_LOOP('',(#653,#654,#655,#656,#657,#658,#659,#660,#661,#662,#663,
#664));
#147=EDGE_LOOP('',(#665));
#148=CIRCLE('',#732,0.7835);
#149=CIRCLE('',#733,0.7835);
#150=CIRCLE('',#734,1.4835);
#151=CIRCLE('',#736,1.5);
#152=CIRCLE('',#737,1.5);
#153=CIRCLE('',#739,0.7835);
#154=CIRCLE('',#742,2.2);
#155=CIRCLE('',#743,1.2);
#156=CIRCLE('',#745,1.2);
#157=CIRCLE('',#746,1.2);
#158=CIRCLE('',#748,4.5);
#159=CIRCLE('',#749,4.5);
#160=CIRCLE('',#751,3.);
#161=CIRCLE('',#752,1.5);
#162=CIRCLE('',#754,1.5);
#163=CIRCLE('',#756,3.);
#164=CIRCLE('',#758,3.);
#165=CIRCLE('',#761,3.);
#166=CIRCLE('',#763,4.5);
#167=CIRCLE('',#765,4.5);
#168=CIRCLE('',#776,5.);
#169=CIRCLE('',#778,5.);
#170=CIRCLE('',#779,2.4);
#171=CIRCLE('',#780,2.4);
#172=CIRCLE('',#782,3.);
#173=CIRCLE('',#785,5.);
#174=CIRCLE('',#788,5.);
#175=CIRCLE('',#791,5.);
#176=CIRCLE('',#793,5.);
#177=CIRCLE('',#798,2.4);
#178=CIRCLE('',#801,3.);
#179=LINE('',#1013,#236);
#180=LINE('',#1019,#237);
#181=LINE('',#1059,#238);
#182=LINE('',#1063,#239);
#183=LINE('',#1066,#240);
#184=LINE('',#1069,#241);
#185=LINE('',#1076,#242);
#186=LINE('',#1080,#243);
#187=LINE('',#1097,#244);
#188=LINE('',#1101,#245);
#189=LINE('',#1103,#246);
#190=LINE('',#1105,#247);
#191=LINE('',#1108,#248);
#192=LINE('',#1129,#249);
#193=LINE('',#1148,#250);
#194=LINE('',#1151,#251);
#195=LINE('',#1153,#252);
#196=LINE('',#1156,#253);
#197=LINE('',#1192,#254);
#198=LINE('',#1194,#255);
#199=LINE('',#1196,#256);
#200=LINE('',#1198,#257);
#201=LINE('',#1199,#258);
#202=LINE('',#1202,#259);
#203=LINE('',#1204,#260);
#204=LINE('',#1206,#261);
#205=LINE('',#1208,#262);
#206=LINE('',#1209,#263);
#207=LINE('',#1212,#264);
#208=LINE('',#1214,#265);
#209=LINE('',#1215,#266);
#210=LINE('',#1220,#267);
#211=LINE('',#1221,#268);
#212=LINE('',#1224,#269);
#213=LINE('',#1228,#270);
#214=LINE('',#1230,#271);
#215=LINE('',#1237,#272);
#216=LINE('',#1243,#273);
#217=LINE('',#1245,#274);
#218=LINE('',#1249,#275);
#219=LINE('',#1250,#276);
#220=LINE('',#1253,#277);
#221=LINE('',#1254,#278);
#222=LINE('',#1257,#279);
#223=LINE('',#1263,#280);
#224=LINE('',#1268,#281);
#225=LINE('',#1271,#282);
#226=LINE('',#1275,#283);
#227=LINE('',#1276,#284);
#228=LINE('',#1278,#285);
#229=LINE('',#1281,#286);
#230=LINE('',#1282,#287);
#231=LINE('',#1285,#288);
#232=LINE('',#1289,#289);
#233=LINE('',#1290,#290);
#234=LINE('',#1294,#291);
#235=LINE('',#1296,#292);
#236=VECTOR('',#808,10.);
#237=VECTOR('',#813,10.);
#238=VECTOR('',#818,10.);
#239=VECTOR('',#821,10.);
#240=VECTOR('',#824,10.);
#241=VECTOR('',#827,0.7835);
#242=VECTOR('',#836,1.7);
#243=VECTOR('',#841,1.2);
#244=VECTOR('',#848,10.);
#245=VECTOR('',#851,10.);
#246=VECTOR('',#852,10.);
#247=VECTOR('',#853,10.);
#248=VECTOR('',#856,10.);
#249=VECTOR('',#865,10.);
#250=VECTOR('',#874,10.);
#251=VECTOR('',#877,10.);
#252=VECTOR('',#880,10.);
#253=VECTOR('',#883,10.);
#254=VECTOR('',#896,10.);
#255=VECTOR('',#897,10.);
#256=VECTOR('',#898,10.);
#257=VECTOR('',#899,10.);
#258=VECTOR('',#900,10.);
#259=VECTOR('',#903,10.);
#260=VECTOR('',#904,10.);
#261=VECTOR('',#905,10.);
#262=VECTOR('',#906,10.);
#263=VECTOR('',#907,10.);
#264=VECTOR('',#910,10.);
#265=VECTOR('',#911,10.);
#266=VECTOR('',#912,10.);
#267=VECTOR('',#917,10.);
#268=VECTOR('',#918,10.);
#269=VECTOR('',#921,10.);
#270=VECTOR('',#926,10.);
#271=VECTOR('',#927,10.);
#272=VECTOR('',#938,3.7);
#273=VECTOR('',#945,10.);
#274=VECTOR('',#946,10.);
#275=VECTOR('',#949,10.);
#276=VECTOR('',#950,10.);
#277=VECTOR('',#953,10.);
#278=VECTOR('',#954,10.);
#279=VECTOR('',#957,10.);
#280=VECTOR('',#966,10.);
#281=VECTOR('',#973,10.);
#282=VECTOR('',#976,10.);
#283=VECTOR('',#981,10.);
#284=VECTOR('',#982,10.);
#285=VECTOR('',#985,10.);
#286=VECTOR('',#988,10.);
#287=VECTOR('',#989,10.);
#288=VECTOR('',#992,2.4);
#289=VECTOR('',#997,10.);
#290=VECTOR('',#998,10.);
#291=VECTOR('',#1003,10.);
#292=VECTOR('',#1006,10.);
#293=VERTEX_POINT('',#1011);
#294=VERTEX_POINT('',#1012);
#295=VERTEX_POINT('',#1014);
#296=VERTEX_POINT('',#1016);
#297=VERTEX_POINT('',#1018);
#298=VERTEX_POINT('',#1058);
#299=VERTEX_POINT('',#1060);
#300=VERTEX_POINT('',#1062);
#301=VERTEX_POINT('',#1064);
#302=VERTEX_POINT('',#1068);
#303=VERTEX_POINT('',#1073);
#304=VERTEX_POINT('',#1075);
#305=VERTEX_POINT('',#1079);
#306=VERTEX_POINT('',#1081);
#307=VERTEX_POINT('',#1083);
#308=VERTEX_POINT('',#1096);
#309=VERTEX_POINT('',#1098);
#310=VERTEX_POINT('',#1100);
#311=VERTEX_POINT('',#1102);
#312=VERTEX_POINT('',#1104);
#313=VERTEX_POINT('',#1106);
#314=VERTEX_POINT('',#1110);
#315=VERTEX_POINT('',#1111);
#316=VERTEX_POINT('',#1118);
#317=VERTEX_POINT('',#1128);
#318=VERTEX_POINT('',#1132);
#319=VERTEX_POINT('',#1139);
#320=VERTEX_POINT('',#1149);
#321=VERTEX_POINT('',#1155);
#322=VERTEX_POINT('',#1159);
#323=VERTEX_POINT('',#1166);
#324=VERTEX_POINT('',#1175);
#325=VERTEX_POINT('',#1176);
#326=VERTEX_POINT('',#1191);
#327=VERTEX_POINT('',#1193);
#328=VERTEX_POINT('',#1195);
#329=VERTEX_POINT('',#1197);
#330=VERTEX_POINT('',#1201);
#331=VERTEX_POINT('',#1203);
#332=VERTEX_POINT('',#1205);
#333=VERTEX_POINT('',#1207);
#334=VERTEX_POINT('',#1211);
#335=VERTEX_POINT('',#1213);
#336=VERTEX_POINT('',#1217);
#337=VERTEX_POINT('',#1219);
#338=VERTEX_POINT('',#1223);
#339=VERTEX_POINT('',#1227);
#340=VERTEX_POINT('',#1229);
#341=VERTEX_POINT('',#1236);
#342=VERTEX_POINT('',#1238);
#343=VERTEX_POINT('',#1242);
#344=VERTEX_POINT('',#1244);
#345=VERTEX_POINT('',#1246);
#346=VERTEX_POINT('',#1248);
#347=VERTEX_POINT('',#1252);
#348=VERTEX_POINT('',#1256);
#349=VERTEX_POINT('',#1261);
#350=VERTEX_POINT('',#1266);
#351=VERTEX_POINT('',#1270);
#352=VERTEX_POINT('',#1274);
#353=VERTEX_POINT('',#1280);
#354=VERTEX_POINT('',#1284);
#355=VERTEX_POINT('',#1288);
#356=VERTEX_POINT('',#1292);
#357=EDGE_CURVE('',#293,#294,#179,.T.);
#358=EDGE_CURVE('',#294,#295,#148,.T.);
#359=EDGE_CURVE('',#295,#296,#149,.T.);
#360=EDGE_CURVE('',#296,#297,#180,.T.);
#361=EDGE_CURVE('',#297,#293,#150,.T.);
#362=EDGE_CURVE('',#293,#297,#56,.T.);
#363=EDGE_CURVE('',#296,#294,#57,.T.);
#364=EDGE_CURVE('',#293,#298,#181,.T.);
#365=EDGE_CURVE('',#299,#298,#151,.T.);
#366=EDGE_CURVE('',#299,#300,#182,.T.);
#367=EDGE_CURVE('',#300,#301,#152,.T.);
#368=EDGE_CURVE('',#301,#297,#183,.T.);
#369=EDGE_CURVE('',#295,#302,#184,.T.);
#370=EDGE_CURVE('',#302,#302,#153,.T.);
#371=EDGE_CURVE('',#303,#303,#154,.T.);
#372=EDGE_CURVE('',#303,#304,#185,.T.);
#373=EDGE_CURVE('',#304,#304,#155,.T.);
#374=EDGE_CURVE('',#304,#305,#186,.T.);
#375=EDGE_CURVE('',#306,#305,#156,.T.);
#376=EDGE_CURVE('',#307,#306,#58,.T.);
#377=EDGE_CURVE('',#305,#307,#157,.T.);
#378=EDGE_CURVE('',#308,#307,#187,.T.);
#379=EDGE_CURVE('',#309,#308,#158,.T.);
#380=EDGE_CURVE('',#310,#309,#188,.T.);
#381=EDGE_CURVE('',#311,#310,#189,.T.);
#382=EDGE_CURVE('',#312,#311,#190,.T.);
#383=EDGE_CURVE('',#313,#312,#159,.T.);
#384=EDGE_CURVE('',#306,#313,#191,.T.);
#385=EDGE_CURVE('',#314,#315,#59,.F.);
#386=EDGE_CURVE('',#314,#316,#160,.T.);
#387=EDGE_CURVE('',#316,#313,#161,.T.);
#388=EDGE_CURVE('',#312,#315,#60,.T.);
#389=EDGE_CURVE('',#316,#317,#192,.T.);
#390=EDGE_CURVE('',#317,#308,#162,.T.);
#391=EDGE_CURVE('',#309,#318,#61,.F.);
#392=EDGE_CURVE('',#317,#319,#163,.T.);
#393=EDGE_CURVE('',#319,#318,#62,.T.);
#394=EDGE_CURVE('',#317,#299,#193,.T.);
#395=EDGE_CURVE('',#320,#299,#164,.T.);
#396=EDGE_CURVE('',#320,#319,#194,.T.);
#397=EDGE_CURVE('',#300,#316,#195,.T.);
#398=EDGE_CURVE('',#314,#321,#196,.T.);
#399=EDGE_CURVE('',#300,#321,#165,.T.);
#400=EDGE_CURVE('',#320,#322,#63,.F.);
#401=EDGE_CURVE('',#298,#323,#166,.T.);
#402=EDGE_CURVE('',#323,#322,#64,.T.);
#403=EDGE_CURVE('',#324,#325,#65,.F.);
#404=EDGE_CURVE('',#324,#301,#167,.T.);
#405=EDGE_CURVE('',#321,#325,#66,.T.);
#406=EDGE_CURVE('',#325,#326,#197,.T.);
#407=EDGE_CURVE('',#327,#315,#198,.T.);
#408=EDGE_CURVE('',#328,#327,#199,.T.);
#409=EDGE_CURVE('',#328,#329,#200,.T.);
#410=EDGE_CURVE('',#326,#329,#201,.T.);
#411=EDGE_CURVE('',#318,#330,#202,.T.);
#412=EDGE_CURVE('',#331,#322,#203,.T.);
#413=EDGE_CURVE('',#332,#331,#204,.T.);
#414=EDGE_CURVE('',#332,#333,#205,.T.);
#415=EDGE_CURVE('',#330,#333,#206,.T.);
#416=EDGE_CURVE('',#334,#324,#207,.T.);
#417=EDGE_CURVE('',#335,#334,#208,.T.);
#418=EDGE_CURVE('',#323,#335,#209,.T.);
#419=EDGE_CURVE('',#336,#326,#17,.T.);
#420=EDGE_CURVE('',#336,#337,#210,.T.);
#421=EDGE_CURVE('',#337,#334,#211,.T.);
#422=EDGE_CURVE('',#311,#338,#212,.T.);
#423=EDGE_CURVE('',#327,#338,#18,.T.);
#424=EDGE_CURVE('',#335,#339,#213,.T.);
#425=EDGE_CURVE('',#339,#340,#214,.T.);
#426=EDGE_CURVE('',#331,#340,#19,.T.);
#427=EDGE_CURVE('',#337,#339,#168,.T.);
#428=EDGE_CURVE('',#339,#337,#169,.T.);
#429=EDGE_CURVE('',#339,#341,#215,.T.);
#430=EDGE_CURVE('',#342,#341,#170,.T.);
#431=EDGE_CURVE('',#341,#342,#171,.T.);
#432=EDGE_CURVE('',#336,#343,#216,.T.);
#433=EDGE_CURVE('',#343,#344,#217,.T.);
#434=EDGE_CURVE('',#344,#345,#172,.T.);
#435=EDGE_CURVE('',#345,#346,#218,.T.);
#436=EDGE_CURVE('',#346,#340,#219,.T.);
#437=EDGE_CURVE('',#347,#310,#220,.T.);
#438=EDGE_CURVE('',#347,#338,#221,.T.);
#439=EDGE_CURVE('',#338,#348,#222,.T.);
#440=EDGE_CURVE('',#348,#328,#173,.T.);
#441=EDGE_CURVE('',#347,#330,#20,.T.);
#442=EDGE_CURVE('',#333,#349,#174,.T.);
#443=EDGE_CURVE('',#349,#347,#223,.T.);
#444=EDGE_CURVE('',#329,#350,#175,.T.);
#445=EDGE_CURVE('',#350,#336,#224,.T.);
#446=EDGE_CURVE('',#340,#351,#225,.T.);
#447=EDGE_CURVE('',#351,#332,#176,.T.);
#448=EDGE_CURVE('',#352,#346,#226,.T.);
#449=EDGE_CURVE('',#352,#351,#227,.T.);
#450=EDGE_CURVE('',#349,#348,#228,.T.);
#451=EDGE_CURVE('',#350,#353,#229,.T.);
#452=EDGE_CURVE('',#353,#343,#230,.T.);
#453=EDGE_CURVE('',#342,#354,#231,.T.);
#454=EDGE_CURVE('',#354,#354,#177,.T.);
#455=EDGE_CURVE('',#355,#352,#232,.T.);
#456=EDGE_CURVE('',#355,#345,#233,.T.);
#457=EDGE_CURVE('',#356,#355,#178,.T.);
#458=EDGE_CURVE('',#356,#344,#234,.T.);
#459=EDGE_CURVE('',#353,#356,#235,.T.);
#460=ORIENTED_EDGE('',*,*,#357,.T.);
#461=ORIENTED_EDGE('',*,*,#358,.T.);
#462=ORIENTED_EDGE('',*,*,#359,.T.);
#463=ORIENTED_EDGE('',*,*,#360,.T.);
#464=ORIENTED_EDGE('',*,*,#361,.T.);
#465=ORIENTED_EDGE('',*,*,#357,.F.);
#466=ORIENTED_EDGE('',*,*,#362,.T.);
#467=ORIENTED_EDGE('',*,*,#360,.F.);
#468=ORIENTED_EDGE('',*,*,#363,.T.);
#469=ORIENTED_EDGE('',*,*,#362,.F.);
#470=ORIENTED_EDGE('',*,*,#364,.T.);
#471=ORIENTED_EDGE('',*,*,#365,.F.);
#472=ORIENTED_EDGE('',*,*,#366,.T.);
#473=ORIENTED_EDGE('',*,*,#367,.T.);
#474=ORIENTED_EDGE('',*,*,#368,.T.);
#475=ORIENTED_EDGE('',*,*,#358,.F.);
#476=ORIENTED_EDGE('',*,*,#363,.F.);
#477=ORIENTED_EDGE('',*,*,#359,.F.);
#478=ORIENTED_EDGE('',*,*,#369,.T.);
#479=ORIENTED_EDGE('',*,*,#370,.F.);
#480=ORIENTED_EDGE('',*,*,#369,.F.);
#481=ORIENTED_EDGE('',*,*,#370,.T.);
#482=ORIENTED_EDGE('',*,*,#371,.F.);
#483=ORIENTED_EDGE('',*,*,#372,.T.);
#484=ORIENTED_EDGE('',*,*,#373,.F.);
#485=ORIENTED_EDGE('',*,*,#372,.F.);
#486=ORIENTED_EDGE('',*,*,#373,.T.);
#487=ORIENTED_EDGE('',*,*,#374,.T.);
#488=ORIENTED_EDGE('',*,*,#375,.F.);
#489=ORIENTED_EDGE('',*,*,#376,.F.);
#490=ORIENTED_EDGE('',*,*,#377,.F.);
#491=ORIENTED_EDGE('',*,*,#374,.F.);
#492=ORIENTED_EDGE('',*,*,#375,.T.);
#493=ORIENTED_EDGE('',*,*,#377,.T.);
#494=ORIENTED_EDGE('',*,*,#378,.F.);
#495=ORIENTED_EDGE('',*,*,#379,.F.);
#496=ORIENTED_EDGE('',*,*,#380,.F.);
#497=ORIENTED_EDGE('',*,*,#381,.F.);
#498=ORIENTED_EDGE('',*,*,#382,.F.);
#499=ORIENTED_EDGE('',*,*,#383,.F.);
#500=ORIENTED_EDGE('',*,*,#384,.F.);
#501=ORIENTED_EDGE('',*,*,#385,.F.);
#502=ORIENTED_EDGE('',*,*,#386,.T.);
#503=ORIENTED_EDGE('',*,*,#387,.T.);
#504=ORIENTED_EDGE('',*,*,#383,.T.);
#505=ORIENTED_EDGE('',*,*,#388,.T.);
#506=ORIENTED_EDGE('',*,*,#376,.T.);
#507=ORIENTED_EDGE('',*,*,#384,.T.);
#508=ORIENTED_EDGE('',*,*,#387,.F.);
#509=ORIENTED_EDGE('',*,*,#389,.T.);
#510=ORIENTED_EDGE('',*,*,#390,.T.);
#511=ORIENTED_EDGE('',*,*,#378,.T.);
#512=ORIENTED_EDGE('',*,*,#391,.F.);
#513=ORIENTED_EDGE('',*,*,#379,.T.);
#514=ORIENTED_EDGE('',*,*,#390,.F.);
#515=ORIENTED_EDGE('',*,*,#392,.T.);
#516=ORIENTED_EDGE('',*,*,#393,.T.);
#517=ORIENTED_EDGE('',*,*,#392,.F.);
#518=ORIENTED_EDGE('',*,*,#394,.T.);
#519=ORIENTED_EDGE('',*,*,#395,.F.);
#520=ORIENTED_EDGE('',*,*,#396,.T.);
#521=ORIENTED_EDGE('',*,*,#389,.F.);
#522=ORIENTED_EDGE('',*,*,#397,.F.);
#523=ORIENTED_EDGE('',*,*,#366,.F.);
#524=ORIENTED_EDGE('',*,*,#394,.F.);
#525=ORIENTED_EDGE('',*,*,#386,.F.);
#526=ORIENTED_EDGE('',*,*,#398,.T.);
#527=ORIENTED_EDGE('',*,*,#399,.F.);
#528=ORIENTED_EDGE('',*,*,#397,.T.);
#529=ORIENTED_EDGE('',*,*,#400,.F.);
#530=ORIENTED_EDGE('',*,*,#395,.T.);
#531=ORIENTED_EDGE('',*,*,#365,.T.);
#532=ORIENTED_EDGE('',*,*,#401,.T.);
#533=ORIENTED_EDGE('',*,*,#402,.T.);
#534=ORIENTED_EDGE('',*,*,#403,.F.);
#535=ORIENTED_EDGE('',*,*,#404,.T.);
#536=ORIENTED_EDGE('',*,*,#367,.F.);
#537=ORIENTED_EDGE('',*,*,#399,.T.);
#538=ORIENTED_EDGE('',*,*,#405,.T.);
#539=ORIENTED_EDGE('',*,*,#406,.F.);
#540=ORIENTED_EDGE('',*,*,#405,.F.);
#541=ORIENTED_EDGE('',*,*,#398,.F.);
#542=ORIENTED_EDGE('',*,*,#385,.T.);
#543=ORIENTED_EDGE('',*,*,#407,.F.);
#544=ORIENTED_EDGE('',*,*,#408,.F.);
#545=ORIENTED_EDGE('',*,*,#409,.T.);
#546=ORIENTED_EDGE('',*,*,#410,.F.);
#547=ORIENTED_EDGE('',*,*,#411,.F.);
#548=ORIENTED_EDGE('',*,*,#393,.F.);
#549=ORIENTED_EDGE('',*,*,#396,.F.);
#550=ORIENTED_EDGE('',*,*,#400,.T.);
#551=ORIENTED_EDGE('',*,*,#412,.F.);
#552=ORIENTED_EDGE('',*,*,#413,.F.);
#553=ORIENTED_EDGE('',*,*,#414,.T.);
#554=ORIENTED_EDGE('',*,*,#415,.F.);
#555=ORIENTED_EDGE('',*,*,#361,.F.);
#556=ORIENTED_EDGE('',*,*,#368,.F.);
#557=ORIENTED_EDGE('',*,*,#404,.F.);
#558=ORIENTED_EDGE('',*,*,#416,.F.);
#559=ORIENTED_EDGE('',*,*,#417,.F.);
#560=ORIENTED_EDGE('',*,*,#418,.F.);
#561=ORIENTED_EDGE('',*,*,#401,.F.);
#562=ORIENTED_EDGE('',*,*,#364,.F.);
#563=ORIENTED_EDGE('',*,*,#416,.T.);
#564=ORIENTED_EDGE('',*,*,#403,.T.);
#565=ORIENTED_EDGE('',*,*,#406,.T.);
#566=ORIENTED_EDGE('',*,*,#419,.F.);
#567=ORIENTED_EDGE('',*,*,#420,.T.);
#568=ORIENTED_EDGE('',*,*,#421,.T.);
#569=ORIENTED_EDGE('',*,*,#382,.T.);
#570=ORIENTED_EDGE('',*,*,#422,.T.);
#571=ORIENTED_EDGE('',*,*,#423,.F.);
#572=ORIENTED_EDGE('',*,*,#407,.T.);
#573=ORIENTED_EDGE('',*,*,#388,.F.);
#574=ORIENTED_EDGE('',*,*,#418,.T.);
#575=ORIENTED_EDGE('',*,*,#424,.T.);
#576=ORIENTED_EDGE('',*,*,#425,.T.);
#577=ORIENTED_EDGE('',*,*,#426,.F.);
#578=ORIENTED_EDGE('',*,*,#412,.T.);
#579=ORIENTED_EDGE('',*,*,#402,.F.);
#580=ORIENTED_EDGE('',*,*,#417,.T.);
#581=ORIENTED_EDGE('',*,*,#421,.F.);
#582=ORIENTED_EDGE('',*,*,#427,.T.);
#583=ORIENTED_EDGE('',*,*,#424,.F.);
#584=ORIENTED_EDGE('',*,*,#427,.F.);
#585=ORIENTED_EDGE('',*,*,#428,.F.);
#586=ORIENTED_EDGE('',*,*,#429,.T.);
#587=ORIENTED_EDGE('',*,*,#430,.F.);
#588=ORIENTED_EDGE('',*,*,#431,.F.);
#589=ORIENTED_EDGE('',*,*,#429,.F.);
#590=ORIENTED_EDGE('',*,*,#428,.T.);
#591=ORIENTED_EDGE('',*,*,#420,.F.);
#592=ORIENTED_EDGE('',*,*,#432,.T.);
#593=ORIENTED_EDGE('',*,*,#433,.T.);
#594=ORIENTED_EDGE('',*,*,#434,.T.);
#595=ORIENTED_EDGE('',*,*,#435,.T.);
#596=ORIENTED_EDGE('',*,*,#436,.T.);
#597=ORIENTED_EDGE('',*,*,#425,.F.);
#598=ORIENTED_EDGE('',*,*,#381,.T.);
#599=ORIENTED_EDGE('',*,*,#437,.F.);
#600=ORIENTED_EDGE('',*,*,#438,.T.);
#601=ORIENTED_EDGE('',*,*,#422,.F.);
#602=ORIENTED_EDGE('',*,*,#423,.T.);
#603=ORIENTED_EDGE('',*,*,#439,.T.);
#604=ORIENTED_EDGE('',*,*,#440,.T.);
#605=ORIENTED_EDGE('',*,*,#408,.T.);
#606=ORIENTED_EDGE('',*,*,#441,.T.);
#607=ORIENTED_EDGE('',*,*,#415,.T.);
#608=ORIENTED_EDGE('',*,*,#442,.T.);
#609=ORIENTED_EDGE('',*,*,#443,.T.);
#610=ORIENTED_EDGE('',*,*,#380,.T.);
#611=ORIENTED_EDGE('',*,*,#391,.T.);
#612=ORIENTED_EDGE('',*,*,#411,.T.);
#613=ORIENTED_EDGE('',*,*,#441,.F.);
#614=ORIENTED_EDGE('',*,*,#437,.T.);
#615=ORIENTED_EDGE('',*,*,#419,.T.);
#616=ORIENTED_EDGE('',*,*,#410,.T.);
#617=ORIENTED_EDGE('',*,*,#444,.T.);
#618=ORIENTED_EDGE('',*,*,#445,.T.);
#619=ORIENTED_EDGE('',*,*,#426,.T.);
#620=ORIENTED_EDGE('',*,*,#446,.T.);
#621=ORIENTED_EDGE('',*,*,#447,.T.);
#622=ORIENTED_EDGE('',*,*,#413,.T.);
#623=ORIENTED_EDGE('',*,*,#446,.F.);
#624=ORIENTED_EDGE('',*,*,#436,.F.);
#625=ORIENTED_EDGE('',*,*,#448,.F.);
#626=ORIENTED_EDGE('',*,*,#449,.T.);
#627=ORIENTED_EDGE('',*,*,#439,.F.);
#628=ORIENTED_EDGE('',*,*,#438,.F.);
#629=ORIENTED_EDGE('',*,*,#443,.F.);
#630=ORIENTED_EDGE('',*,*,#450,.T.);
#631=ORIENTED_EDGE('',*,*,#371,.T.);
#632=ORIENTED_EDGE('',*,*,#445,.F.);
#633=ORIENTED_EDGE('',*,*,#451,.T.);
#634=ORIENTED_EDGE('',*,*,#452,.T.);
#635=ORIENTED_EDGE('',*,*,#432,.F.);
#636=ORIENTED_EDGE('',*,*,#430,.T.);
#637=ORIENTED_EDGE('',*,*,#431,.T.);
#638=ORIENTED_EDGE('',*,*,#453,.T.);
#639=ORIENTED_EDGE('',*,*,#454,.T.);
#640=ORIENTED_EDGE('',*,*,#453,.F.);
#641=ORIENTED_EDGE('',*,*,#455,.T.);
#642=ORIENTED_EDGE('',*,*,#448,.T.);
#643=ORIENTED_EDGE('',*,*,#435,.F.);
#644=ORIENTED_EDGE('',*,*,#456,.F.);
#645=ORIENTED_EDGE('',*,*,#457,.T.);
#646=ORIENTED_EDGE('',*,*,#456,.T.);
#647=ORIENTED_EDGE('',*,*,#434,.F.);
#648=ORIENTED_EDGE('',*,*,#458,.F.);
#649=ORIENTED_EDGE('',*,*,#459,.T.);
#650=ORIENTED_EDGE('',*,*,#458,.T.);
#651=ORIENTED_EDGE('',*,*,#433,.F.);
#652=ORIENTED_EDGE('',*,*,#452,.F.);
#653=ORIENTED_EDGE('',*,*,#440,.F.);
#654=ORIENTED_EDGE('',*,*,#450,.F.);
#655=ORIENTED_EDGE('',*,*,#442,.F.);
#656=ORIENTED_EDGE('',*,*,#414,.F.);
#657=ORIENTED_EDGE('',*,*,#447,.F.);
#658=ORIENTED_EDGE('',*,*,#449,.F.);
#659=ORIENTED_EDGE('',*,*,#455,.F.);
#660=ORIENTED_EDGE('',*,*,#457,.F.);
#661=ORIENTED_EDGE('',*,*,#459,.F.);
#662=ORIENTED_EDGE('',*,*,#451,.F.);
#663=ORIENTED_EDGE('',*,*,#444,.F.);
#664=ORIENTED_EDGE('',*,*,#409,.F.);
#665=ORIENTED_EDGE('',*,*,#454,.F.);
#666=CONICAL_SURFACE('',#731,1.1335,0.785398163397446);
#667=CONICAL_SURFACE('',#741,1.7,0.785398163397448);
#668=CONICAL_SURFACE('',#777,3.7,0.785398163397448);
#669=ADVANCED_FACE('',(#68),#666,.F.);
#670=ADVANCED_FACE('',(#69),#67,.T.);
#671=ADVANCED_FACE('',(#70),#44,.F.);
#672=ADVANCED_FACE('',(#71),#45,.F.);
#673=ADVANCED_FACE('',(#72),#25,.T.);
#674=ADVANCED_FACE('',(#73),#667,.F.);
#675=ADVANCED_FACE('',(#74),#46,.F.);
#676=ADVANCED_FACE('',(#75),#26,.F.);
#677=ADVANCED_FACE('',(#76),#21,.F.);
#678=ADVANCED_FACE('',(#77),#47,.F.);
#679=ADVANCED_FACE('',(#78),#22,.F.);
#680=ADVANCED_FACE('',(#79),#48,.T.);
#681=ADVANCED_FACE('',(#80),#27,.F.);
#682=ADVANCED_FACE('',(#81),#49,.T.);
#683=ADVANCED_FACE('',(#82),#23,.F.);
#684=ADVANCED_FACE('',(#83),#24,.F.);
#685=ADVANCED_FACE('',(#84),#28,.T.);
#686=ADVANCED_FACE('',(#85),#29,.T.);
#687=ADVANCED_FACE('',(#86),#30,.F.);
#688=ADVANCED_FACE('',(#87),#31,.T.);
#689=ADVANCED_FACE('',(#88),#32,.T.);
#690=ADVANCED_FACE('',(#89),#33,.T.);
#691=ADVANCED_FACE('',(#90),#34,.T.);
#692=ADVANCED_FACE('',(#91),#668,.F.);
#693=ADVANCED_FACE('',(#92),#35,.T.);
#694=ADVANCED_FACE('',(#93),#36,.T.);
#695=ADVANCED_FACE('',(#94),#50,.T.);
#696=ADVANCED_FACE('',(#95),#51,.T.);
#697=ADVANCED_FACE('',(#96),#37,.T.);
#698=ADVANCED_FACE('',(#97),#52,.T.);
#699=ADVANCED_FACE('',(#98),#53,.T.);
#700=ADVANCED_FACE('',(#99),#38,.T.);
#701=ADVANCED_FACE('',(#100,#15),#39,.T.);
#702=ADVANCED_FACE('',(#101),#40,.T.);
#703=ADVANCED_FACE('',(#102),#54,.F.);
#704=ADVANCED_FACE('',(#103),#41,.T.);
#705=ADVANCED_FACE('',(#104),#55,.F.);
#706=ADVANCED_FACE('',(#105),#42,.T.);
#707=ADVANCED_FACE('',(#106,#16),#43,.F.);
#708=CLOSED_SHELL('',(#669,#670,#671,#672,#673,#674,#675,#676,#677,#678,
#679,#680,#681,#682,#683,#684,#685,#686,#687,#688,#689,#690,#691,#692,#693,
#694,#695,#696,#697,#698,#699,#700,#701,#702,#703,#704,#705,#706,#707));
#709=DERIVED_UNIT_ELEMENT(#712,1.);
#710=DERIVED_UNIT_ELEMENT(#1303,-3.);
#711=DIMENSIONAL_EXPONENTS(0.,1.,0.,0.,0.,0.,0.);
#712=(
CONVERSION_BASED_UNIT('gram',#714)
MASS_UNIT()
NAMED_UNIT(#711)
);
#713=(
MASS_UNIT()
NAMED_UNIT(*)
SI_UNIT(.KILO.,.GRAM.)
);
#714=MASS_MEASURE_WITH_UNIT(MASS_MEASURE(0.001),#713);
#715=DERIVED_UNIT((#709,#710));
#716=MEASURE_REPRESENTATION_ITEM('density measure',
POSITIVE_RATIO_MEASURE(1.),#715);
#717=PROPERTY_DEFINITION_REPRESENTATION(#722,#719);
#718=PROPERTY_DEFINITION_REPRESENTATION(#723,#720);
#719=REPRESENTATION('material name',(#721),#1300);
#720=REPRESENTATION('density',(#716),#1300);
#721=DESCRIPTIVE_REPRESENTATION_ITEM('Generic','Generic');
#722=PROPERTY_DEFINITION('material property','material name',#1310);
#723=PROPERTY_DEFINITION('material property','density of part',#1310);
#724=DATE_TIME_ROLE('creation_date');
#725=APPLIED_DATE_AND_TIME_ASSIGNMENT(#726,#724,(#1310));
#726=DATE_AND_TIME(#727,#728);
#727=CALENDAR_DATE(2026,5,6);
#728=LOCAL_TIME(0,0,0.,#729);
#729=COORDINATED_UNIVERSAL_TIME_OFFSET(0,0,.BEHIND.);
#730=AXIS2_PLACEMENT_3D('',#1009,#804,#805);
#731=AXIS2_PLACEMENT_3D('',#1010,#806,#807);
#732=AXIS2_PLACEMENT_3D('',#1015,#809,#810);
#733=AXIS2_PLACEMENT_3D('',#1017,#811,#812);
#734=AXIS2_PLACEMENT_3D('',#1020,#814,#815);
#735=AXIS2_PLACEMENT_3D('',#1057,#816,#817);
#736=AXIS2_PLACEMENT_3D('',#1061,#819,#820);
#737=AXIS2_PLACEMENT_3D('',#1065,#822,#823);
#738=AXIS2_PLACEMENT_3D('',#1067,#825,#826);
#739=AXIS2_PLACEMENT_3D('',#1070,#828,#829);
#740=AXIS2_PLACEMENT_3D('',#1071,#830,#831);
#741=AXIS2_PLACEMENT_3D('',#1072,#832,#833);
#742=AXIS2_PLACEMENT_3D('',#1074,#834,#835);
#743=AXIS2_PLACEMENT_3D('',#1077,#837,#838);
#744=AXIS2_PLACEMENT_3D('',#1078,#839,#840);
#745=AXIS2_PLACEMENT_3D('',#1082,#842,#843);
#746=AXIS2_PLACEMENT_3D('',#1094,#844,#845);
#747=AXIS2_PLACEMENT_3D('',#1095,#846,#847);
#748=AXIS2_PLACEMENT_3D('',#1099,#849,#850);
#749=AXIS2_PLACEMENT_3D('',#1107,#854,#855);
#750=AXIS2_PLACEMENT_3D('',#1109,#857,#858);
#751=AXIS2_PLACEMENT_3D('',#1119,#859,#860);
#752=AXIS2_PLACEMENT_3D('',#1120,#861,#862);
#753=AXIS2_PLACEMENT_3D('',#1127,#863,#864);
#754=AXIS2_PLACEMENT_3D('',#1130,#866,#867);
#755=AXIS2_PLACEMENT_3D('',#1131,#868,#869);
#756=AXIS2_PLACEMENT_3D('',#1140,#870,#871);
#757=AXIS2_PLACEMENT_3D('',#1147,#872,#873);
#758=AXIS2_PLACEMENT_3D('',#1150,#875,#876);
#759=AXIS2_PLACEMENT_3D('',#1152,#878,#879);
#760=AXIS2_PLACEMENT_3D('',#1154,#881,#882);
#761=AXIS2_PLACEMENT_3D('',#1157,#884,#885);
#762=AXIS2_PLACEMENT_3D('',#1158,#886,#887);
#763=AXIS2_PLACEMENT_3D('',#1167,#888,#889);
#764=AXIS2_PLACEMENT_3D('',#1174,#890,#891);
#765=AXIS2_PLACEMENT_3D('',#1183,#892,#893);
#766=AXIS2_PLACEMENT_3D('',#1190,#894,#895);
#767=AXIS2_PLACEMENT_3D('',#1200,#901,#902);
#768=AXIS2_PLACEMENT_3D('',#1210,#908,#909);
#769=AXIS2_PLACEMENT_3D('',#1216,#913,#914);
#770=AXIS2_PLACEMENT_3D('',#1218,#915,#916);
#771=AXIS2_PLACEMENT_3D('',#1222,#919,#920);
#772=AXIS2_PLACEMENT_3D('',#1225,#922,#923);
#773=AXIS2_PLACEMENT_3D('',#1226,#924,#925);
#774=AXIS2_PLACEMENT_3D('',#1231,#928,#929);
#775=AXIS2_PLACEMENT_3D('',#1232,#930,#931);
#776=AXIS2_PLACEMENT_3D('',#1233,#932,#933);
#777=AXIS2_PLACEMENT_3D('',#1234,#934,#935);
#778=AXIS2_PLACEMENT_3D('',#1235,#936,#937);
#779=AXIS2_PLACEMENT_3D('',#1239,#939,#940);
#780=AXIS2_PLACEMENT_3D('',#1240,#941,#942);
#781=AXIS2_PLACEMENT_3D('',#1241,#943,#944);
#782=AXIS2_PLACEMENT_3D('',#1247,#947,#948);
#783=AXIS2_PLACEMENT_3D('',#1251,#951,#952);
#784=AXIS2_PLACEMENT_3D('',#1255,#955,#956);
#785=AXIS2_PLACEMENT_3D('',#1258,#958,#959);
#786=AXIS2_PLACEMENT_3D('',#1259,#960,#961);
#787=AXIS2_PLACEMENT_3D('',#1260,#962,#963);
#788=AXIS2_PLACEMENT_3D('',#1262,#964,#965);
#789=AXIS2_PLACEMENT_3D('',#1264,#967,#968);
#790=AXIS2_PLACEMENT_3D('',#1265,#969,#970);
#791=AXIS2_PLACEMENT_3D('',#1267,#971,#972);
#792=AXIS2_PLACEMENT_3D('',#1269,#974,#975);
#793=AXIS2_PLACEMENT_3D('',#1272,#977,#978);
#794=AXIS2_PLACEMENT_3D('',#1273,#979,#980);
#795=AXIS2_PLACEMENT_3D('',#1277,#983,#984);
#796=AXIS2_PLACEMENT_3D('',#1279,#986,#987);
#797=AXIS2_PLACEMENT_3D('',#1283,#990,#991);
#798=AXIS2_PLACEMENT_3D('',#1286,#993,#994);
#799=AXIS2_PLACEMENT_3D('',#1287,#995,#996);
#800=AXIS2_PLACEMENT_3D('',#1291,#999,#1000);
#801=AXIS2_PLACEMENT_3D('',#1293,#1001,#1002);
#802=AXIS2_PLACEMENT_3D('',#1295,#1004,#1005);
#803=AXIS2_PLACEMENT_3D('',#1297,#1007,#1008);
#804=DIRECTION('axis',(0.,0.,1.));
#805=DIRECTION('refdir',(1.,0.,0.));
#806=DIRECTION('center_axis',(1.11022302462516E-16,-1.,0.));
#807=DIRECTION('ref_axis',(-6.12323399573677E-17,-1.35928006661649E-32,
1.));
#808=DIRECTION('',(0.522309317000765,0.70710678118655,0.476647644884763));
#809=DIRECTION('center_axis',(-1.11022302462516E-16,1.,0.));
#810=DIRECTION('ref_axis',(-1.,-1.11022302462516E-16,0.));
#811=DIRECTION('center_axis',(-1.11022302462516E-16,1.,0.));
#812=DIRECTION('ref_axis',(-1.,-1.11022302462516E-16,0.));
#813=DIRECTION('',(0.522309317000765,-0.70710678118655,-0.476647644884762));
#814=DIRECTION('center_axis',(1.11022302462516E-16,-1.,0.));
#815=DIRECTION('ref_axis',(-1.,-1.11022302462516E-16,0.));
#816=DIRECTION('center_axis',(1.,1.11022302462516E-16,0.));
#817=DIRECTION('ref_axis',(0.,0.707106781186548,-0.707106781186547));
#818=DIRECTION('',(-1.,-1.11022302462516E-16,0.));
#819=DIRECTION('center_axis',(1.,0.,0.));
#820=DIRECTION('ref_axis',(0.,0.,-1.));
#821=DIRECTION('',(1.,1.11022302462516E-16,0.));
#822=DIRECTION('center_axis',(1.,0.,0.));
#823=DIRECTION('ref_axis',(0.,-1.48029736616688E-15,-1.));
#824=DIRECTION('',(-1.,-1.11022302462516E-16,0.));
#825=DIRECTION('center_axis',(1.11022302462516E-16,-1.,0.));
#826=DIRECTION('ref_axis',(1.,1.11022302462516E-16,0.));
#827=DIRECTION('',(-1.11022302462516E-16,1.,0.));
#828=DIRECTION('center_axis',(1.11022302462516E-16,-1.,0.));
#829=DIRECTION('ref_axis',(1.,1.11022302462516E-16,0.));
#830=DIRECTION('center_axis',(1.11022302462516E-16,-1.,0.));
#831=DIRECTION('ref_axis',(1.,1.11022302462516E-16,0.));
#832=DIRECTION('center_axis',(4.44089209850063E-16,-1.,0.));
#833=DIRECTION('ref_axis',(1.,4.44089209850063E-16,0.));
#834=DIRECTION('center_axis',(-4.44089209850063E-16,1.,0.));
#835=DIRECTION('ref_axis',(1.,4.44089209850063E-16,0.));
#836=DIRECTION('',(0.707106781186547,0.707106781186548,8.65956056235493E-17));
#837=DIRECTION('center_axis',(4.44089209850063E-16,-1.,0.));
#838=DIRECTION('ref_axis',(1.,4.44089209850063E-16,0.));
#839=DIRECTION('center_axis',(4.44089209850063E-16,-1.,0.));
#840=DIRECTION('ref_axis',(1.,4.44089209850063E-16,0.));
#841=DIRECTION('',(-4.44089209850063E-16,1.,0.));
#842=DIRECTION('center_axis',(2.22044604925031E-16,-1.,0.));
#843=DIRECTION('ref_axis',(1.,4.44089209850063E-16,0.));
#844=DIRECTION('center_axis',(2.22044604925031E-16,-1.,0.));
#845=DIRECTION('ref_axis',(1.,4.44089209850063E-16,0.));
#846=DIRECTION('center_axis',(2.22044604925031E-16,-1.,0.));
#847=DIRECTION('ref_axis',(-1.,-2.22044604925031E-16,0.));
#848=DIRECTION('',(1.,2.22044604925031E-16,0.));
#849=DIRECTION('center_axis',(-2.22044604925031E-16,1.,0.));
#850=DIRECTION('ref_axis',(-0.707106781186547,-1.57009245868377E-16,0.707106781186548));
#851=DIRECTION('',(-0.707106781186548,-1.57009245868378E-16,-0.707106781186547));
#852=DIRECTION('',(-1.,-2.22044604925031E-16,0.));
#853=DIRECTION('',(-0.707106781186547,-1.57009245868377E-16,0.707106781186548));
#854=DIRECTION('center_axis',(-2.22044604925031E-16,1.,0.));
#855=DIRECTION('ref_axis',(0.707106781186548,1.57009245868378E-16,0.707106781186547));
#856=DIRECTION('',(1.,2.22044604925031E-16,0.));
#857=DIRECTION('center_axis',(2.22044604925031E-16,-1.,0.));
#858=DIRECTION('ref_axis',(0.,0.,-1.));
#859=DIRECTION('center_axis',(2.22044604925031E-16,-1.,0.));
#860=DIRECTION('ref_axis',(0.707106781186548,1.85037170770859E-16,0.707106781186547));
#861=DIRECTION('center_axis',(-1.,0.,0.));
#862=DIRECTION('ref_axis',(0.,0.,-1.));
#863=DIRECTION('center_axis',(-1.,-2.22044604925031E-16,0.));
#864=DIRECTION('ref_axis',(5.23364152894591E-16,-0.707106781186548,-0.707106781186547));
#865=DIRECTION('',(-1.,-2.22044604925031E-16,0.));
#866=DIRECTION('center_axis',(-1.,0.,0.));
#867=DIRECTION('ref_axis',(0.,-1.48029736616688E-15,-1.));
#868=DIRECTION('center_axis',(-2.22044604925031E-16,1.,0.));
#869=DIRECTION('ref_axis',(0.,0.,1.));
#870=DIRECTION('center_axis',(2.22044604925031E-16,-1.,0.));
#871=DIRECTION('ref_axis',(-0.707106781186547,-1.85037170770859E-16,0.707106781186548));
#872=DIRECTION('center_axis',(2.88657986402541E-16,-1.,0.));
#873=DIRECTION('ref_axis',(-0.707106781186548,-5.23364152894592E-16,0.707106781186548));
#874=DIRECTION('',(-2.88657986402541E-16,1.,0.));
#875=DIRECTION('center_axis',(-1.11022302462516E-16,1.,0.));
#876=DIRECTION('ref_axis',(-0.707106781186548,-9.25185853854297E-17,0.707106781186547));
#877=DIRECTION('',(2.88657986402541E-16,-1.,0.));
#878=DIRECTION('center_axis',(0.,0.,-1.));
#879=DIRECTION('ref_axis',(-1.,0.,0.));
#880=DIRECTION('',(4.2188474935756E-16,-1.,0.));
#881=DIRECTION('center_axis',(-4.2188474935756E-16,1.,0.));
#882=DIRECTION('ref_axis',(0.707106781186548,1.04672830578918E-15,0.707106781186548));
#883=DIRECTION('',(-4.2188474935756E-16,1.,0.));
#884=DIRECTION('center_axis',(-1.11022302462516E-16,1.,0.));
#885=DIRECTION('ref_axis',(0.707106781186547,9.25185853854297E-17,0.707106781186548));
#886=DIRECTION('center_axis',(-1.11022302462516E-16,1.,0.));
#887=DIRECTION('ref_axis',(0.,0.,1.));
#888=DIRECTION('center_axis',(1.11022302462516E-16,-1.,0.));
#889=DIRECTION('ref_axis',(-0.707106781186548,-7.85046229341888E-17,0.707106781186547));
#890=DIRECTION('center_axis',(1.11022302462516E-16,-1.,0.));
#891=DIRECTION('ref_axis',(0.,0.,-1.));
#892=DIRECTION('center_axis',(1.11022302462516E-16,-1.,0.));
#893=DIRECTION('ref_axis',(0.707106781186547,7.85046229341887E-17,0.707106781186548));
#894=DIRECTION('center_axis',(1.,4.2188474935756E-16,0.));
#895=DIRECTION('ref_axis',(-4.2188474935756E-16,1.,0.));
#896=DIRECTION('',(-4.2188474935756E-16,1.,0.));
#897=DIRECTION('',(-4.2188474935756E-16,1.,0.));
#898=DIRECTION('',(0.,0.,1.));
#899=DIRECTION('',(-4.2188474935756E-16,1.,0.));
#900=DIRECTION('',(0.,0.,-1.));
#901=DIRECTION('center_axis',(-1.,-2.88657986402541E-16,0.));
#902=DIRECTION('ref_axis',(2.88657986402541E-16,-1.,0.));
#903=DIRECTION('',(2.88657986402541E-16,-1.,0.));
#904=DIRECTION('',(2.88657986402541E-16,-1.,0.));
#905=DIRECTION('',(0.,0.,1.));
#906=DIRECTION('',(2.88657986402541E-16,-1.,0.));
#907=DIRECTION('',(0.,0.,-1.));
#908=DIRECTION('center_axis',(-1.11022302462516E-16,1.,0.));
#909=DIRECTION('ref_axis',(1.,1.11022302462516E-16,0.));
#910=DIRECTION('',(0.707106781186547,7.85046229341887E-17,-0.707106781186548));
#911=DIRECTION('',(1.,1.11022302462516E-16,0.));
#912=DIRECTION('',(0.707106781186548,7.85046229341888E-17,0.707106781186547));
#913=DIRECTION('center_axis',(0.707106781186548,2.98317567149917E-16,0.707106781186547));
#914=DIRECTION('ref_axis',(0.707106781186547,0.,-0.707106781186548));
#915=DIRECTION('center_axis',(-0.707106781186548,-2.98317567149917E-16,
-0.707106781186547));
#916=DIRECTION('ref_axis',(0.707106781186547,2.74766180269661E-16,-0.707106781186548));
#917=DIRECTION('',(4.2188474935756E-16,-1.,0.));
#918=DIRECTION('',(4.2188474935756E-16,-1.,0.));
#919=DIRECTION('center_axis',(0.707106781186548,2.98317567149917E-16,0.707106781186547));
#920=DIRECTION('ref_axis',(0.707106781186547,0.,-0.707106781186548));
#921=DIRECTION('',(4.2188474935756E-16,-1.,0.));
#922=DIRECTION('center_axis',(-0.707106781186548,-2.98317567149917E-16,
-0.707106781186547));
#923=DIRECTION('ref_axis',(0.707106781186547,3.14018491736755E-16,-0.707106781186548));
#924=DIRECTION('center_axis',(-0.707106781186547,-2.04112019628891E-16,
0.707106781186548));
#925=DIRECTION('ref_axis',(0.707106781186548,0.,0.707106781186547));
#926=DIRECTION('',(-2.88657986402541E-16,1.,0.));
#927=DIRECTION('',(-2.88657986402541E-16,1.,0.));
#928=DIRECTION('center_axis',(0.707106781186547,2.04112019628891E-16,-0.707106781186548));
#929=DIRECTION('ref_axis',(-0.707106781186548,-1.96261557335472E-16,-0.707106781186547));
#930=DIRECTION('center_axis',(0.,0.,1.));
#931=DIRECTION('ref_axis',(1.,0.,0.));
#932=DIRECTION('center_axis',(0.,0.,-1.));
#933=DIRECTION('ref_axis',(1.,0.,0.));
#934=DIRECTION('center_axis',(0.,0.,1.));
#935=DIRECTION('ref_axis',(1.,0.,0.));
#936=DIRECTION('center_axis',(0.,0.,-1.));
#937=DIRECTION('ref_axis',(1.,0.,0.));
#938=DIRECTION('',(0.707106781186547,8.65956056235493E-17,-0.707106781186548));
#939=DIRECTION('center_axis',(0.,0.,1.));
#940=DIRECTION('ref_axis',(-1.,0.,0.));
#941=DIRECTION('center_axis',(0.,0.,1.));
#942=DIRECTION('ref_axis',(-1.,0.,0.));
#943=DIRECTION('center_axis',(0.,0.,1.));
#944=DIRECTION('ref_axis',(1.,0.,0.));
#945=DIRECTION('',(-1.,0.,0.));
#946=DIRECTION('',(2.31296463463574E-16,-1.,0.));
#947=DIRECTION('center_axis',(0.,0.,-1.));
#948=DIRECTION('ref_axis',(-1.,0.,0.));
#949=DIRECTION('',(-9.25185853854296E-17,1.,0.));
#950=DIRECTION('',(-1.,0.,0.));
#951=DIRECTION('center_axis',(0.,0.,1.));
#952=DIRECTION('ref_axis',(1.,0.,0.));
#953=DIRECTION('',(-2.88657986402541E-16,1.,0.));
#954=DIRECTION('',(1.,4.44089209850063E-16,0.));
#955=DIRECTION('center_axis',(0.,0.,1.));
#956=DIRECTION('ref_axis',(0.707106781186548,-0.707106781186547,0.));
#957=DIRECTION('',(0.,0.,-1.));
#958=DIRECTION('center_axis',(0.,0.,1.));
#959=DIRECTION('ref_axis',(0.707106781186548,-0.707106781186547,0.));
#960=DIRECTION('center_axis',(0.,0.,1.));
#961=DIRECTION('ref_axis',(-0.707106781186548,-0.707106781186547,0.));
#962=DIRECTION('center_axis',(0.707106781186547,2.04112019628891E-16,-0.707106781186548));
#963=DIRECTION('ref_axis',(-0.707106781186548,-2.35513868802566E-16,-0.707106781186547));
#964=DIRECTION('center_axis',(0.,0.,1.));
#965=DIRECTION('ref_axis',(-0.707106781186548,-0.707106781186547,0.));
#966=DIRECTION('',(0.,0.,1.));
#967=DIRECTION('center_axis',(-0.707106781186547,-2.04112019628891E-16,
0.707106781186548));
#968=DIRECTION('ref_axis',(0.707106781186548,0.,0.707106781186547));
#969=DIRECTION('center_axis',(0.,0.,1.));
#970=DIRECTION('ref_axis',(0.707106781186548,0.707106781186547,0.));
#971=DIRECTION('center_axis',(0.,0.,1.));
#972=DIRECTION('ref_axis',(0.707106781186548,0.707106781186547,0.));
#973=DIRECTION('',(0.,0.,1.));
#974=DIRECTION('center_axis',(0.,0.,1.));
#975=DIRECTION('ref_axis',(-0.707106781186547,0.707106781186548,0.));
#976=DIRECTION('',(0.,0.,-1.));
#977=DIRECTION('center_axis',(0.,0.,1.));
#978=DIRECTION('ref_axis',(-0.707106781186547,0.707106781186548,0.));
#979=DIRECTION('center_axis',(0.,1.,0.));
#980=DIRECTION('ref_axis',(-1.,0.,0.));
#981=DIRECTION('',(0.,0.,1.));
#982=DIRECTION('',(-1.,0.,0.));
#983=DIRECTION('center_axis',(4.44089209850063E-16,-1.,0.));
#984=DIRECTION('ref_axis',(1.,4.44089209850063E-16,0.));
#985=DIRECTION('',(1.,4.44089209850063E-16,0.));
#986=DIRECTION('center_axis',(0.,1.,0.));
#987=DIRECTION('ref_axis',(-1.,0.,0.));
#988=DIRECTION('',(-1.,0.,0.));
#989=DIRECTION('',(0.,0.,1.));
#990=DIRECTION('center_axis',(0.,0.,1.));
#991=DIRECTION('ref_axis',(-1.,0.,0.));
#992=DIRECTION('',(0.,0.,-1.));
#993=DIRECTION('center_axis',(0.,0.,-1.));
#994=DIRECTION('ref_axis',(-1.,0.,0.));
#995=DIRECTION('center_axis',(1.,9.25185853854296E-17,0.));
#996=DIRECTION('ref_axis',(-9.25185853854296E-17,1.,0.));
#997=DIRECTION('',(-9.25185853854296E-17,1.,0.));
#998=DIRECTION('',(0.,0.,1.));
#999=DIRECTION('center_axis',(0.,0.,1.));
#1000=DIRECTION('ref_axis',(-5.0532154980743E-16,-1.,0.));
#1001=DIRECTION('center_axis',(0.,0.,-1.));
#1002=DIRECTION('ref_axis',(-1.,0.,0.));
#1003=DIRECTION('',(0.,0.,1.));
#1004=DIRECTION('center_axis',(-1.,-2.31296463463574E-16,0.));
#1005=DIRECTION('ref_axis',(2.31296463463574E-16,-1.,0.));
#1006=DIRECTION('',(2.31296463463574E-16,-1.,0.));
#1007=DIRECTION('center_axis',(0.,0.,1.));
#1008=DIRECTION('ref_axis',(1.,0.,0.));
#1009=CARTESIAN_POINT('',(0.,0.,0.));
#1010=CARTESIAN_POINT('Origin',(2.73669975570101E-15,-12.5,7.5));
#1011=CARTESIAN_POINT('',(-1.09579754060684,-12.85,6.5));
#1012=CARTESIAN_POINT('',(-0.578737696707419,-12.15,6.97185709470846));
#1013=CARTESIAN_POINT('',(-1.09579754060684,-12.85,6.5));
#1014=CARTESIAN_POINT('',(-0.783499999999997,-12.15,7.5));
#1015=CARTESIAN_POINT('Origin',(2.69784194983913E-15,-12.15,7.5));
#1016=CARTESIAN_POINT('',(0.578737696707424,-12.15,6.97185709470846));
#1017=CARTESIAN_POINT('Origin',(2.69784194983913E-15,-12.15,7.5));
#1018=CARTESIAN_POINT('',(1.09579754060684,-12.85,6.5));
#1019=CARTESIAN_POINT('',(0.578737696707424,-12.15,6.97185709470846));
#1020=CARTESIAN_POINT('Origin',(2.77555756156289E-15,-12.85,7.5));
#1021=CARTESIAN_POINT('Ctrl Pts',(1.09579754060684,-12.85,6.5));
#1022=CARTESIAN_POINT('Ctrl Pts',(0.858347335532151,-12.85,6.23980264926256));
#1023=CARTESIAN_POINT('Ctrl Pts',(0.301674498821521,-12.9531624831248,5.96174254238285));
#1024=CARTESIAN_POINT('Ctrl Pts',(-0.535744508154167,-12.9103472823889,
6.05876330208142));
#1025=CARTESIAN_POINT('Ctrl Pts',(-0.937497403890376,-12.85,6.32653509950837));
#1026=CARTESIAN_POINT('Ctrl Pts',(-1.09579754060684,-12.85,6.5));
#1027=CARTESIAN_POINT('Ctrl Pts',(0.923444259307038,-12.6166666666667,6.65728569823615));
#1028=CARTESIAN_POINT('Ctrl Pts',(0.723341575533835,-12.6166666666667,6.43801366948865));
#1029=CARTESIAN_POINT('Ctrl Pts',(0.254450765824195,-12.6854416554166,6.2025505040036));
#1030=CARTESIAN_POINT('Ctrl Pts',(-0.451771257198347,-12.6568981882593,
6.28508991603875));
#1031=CARTESIAN_POINT('Ctrl Pts',(-0.790042470124897,-12.6166666666667,
6.51110434573782));
#1032=CARTESIAN_POINT('Ctrl Pts',(-0.923444259307032,-12.6166666666667,
6.65728569823615));
#1033=CARTESIAN_POINT('Ctrl Pts',(0.751090978007231,-12.3833333333333,6.81457139647231));
#1034=CARTESIAN_POINT('Ctrl Pts',(0.588335815535519,-12.3833333333333,6.63622468971474));
#1035=CARTESIAN_POINT('Ctrl Pts',(0.207227032826869,-12.4177208277083,6.44335846562436));
#1036=CARTESIAN_POINT('Ctrl Pts',(-0.367798006242528,-12.4034490941296,
6.51141652999607));
#1037=CARTESIAN_POINT('Ctrl Pts',(-0.642587536359417,-12.3833333333333,
6.69567359196726));
#1038=CARTESIAN_POINT('Ctrl Pts',(-0.751090978007225,-12.3833333333333,
6.81457139647231));
#1039=CARTESIAN_POINT('Ctrl Pts',(0.578737696707424,-12.15,6.97185709470846));
#1040=CARTESIAN_POINT('Ctrl Pts',(0.453330055537204,-12.15,6.83443570994083));
#1041=CARTESIAN_POINT('Ctrl Pts',(0.160003299829542,-12.15,6.68416642724512));
#1042=CARTESIAN_POINT('Ctrl Pts',(-0.283824755286709,-12.15,6.73774314395339));
#1043=CARTESIAN_POINT('Ctrl Pts',(-0.495132602593938,-12.15,6.8802428381967));
#1044=CARTESIAN_POINT('Ctrl Pts',(-0.578737696707419,-12.15,6.97185709470846));
#1045=CARTESIAN_POINT('Ctrl Pts',(-1.09579754060684,-12.85,6.5));
#1046=CARTESIAN_POINT('Ctrl Pts',(-0.937497403890376,-12.85,6.32653509950837));
#1047=CARTESIAN_POINT('Ctrl Pts',(-0.535744508154167,-12.9103472823889,
6.05876330208142));
#1048=CARTESIAN_POINT('Ctrl Pts',(0.301674498821521,-12.9531624831248,5.96174254238285));
#1049=CARTESIAN_POINT('Ctrl Pts',(0.858347335532151,-12.85,6.23980264926256));
#1050=CARTESIAN_POINT('Ctrl Pts',(1.09579754060684,-12.85,6.5));
#1051=CARTESIAN_POINT('Ctrl Pts',(0.578737696707424,-12.15,6.97185709470846));
#1052=CARTESIAN_POINT('Ctrl Pts',(0.453330055537204,-12.15,6.83443570994083));
#1053=CARTESIAN_POINT('Ctrl Pts',(0.160003299829542,-12.15,6.68416642724512));
#1054=CARTESIAN_POINT('Ctrl Pts',(-0.283824755286709,-12.15,6.73774314395339));
#1055=CARTESIAN_POINT('Ctrl Pts',(-0.495132602593938,-12.15,6.8802428381967));
#1056=CARTESIAN_POINT('Ctrl Pts',(-0.578737696707419,-12.15,6.97185709470846));
#1057=CARTESIAN_POINT('Origin',(-5.,-14.35,6.5));
#1058=CARTESIAN_POINT('',(-7.,-12.85,6.5));
#1059=CARTESIAN_POINT('',(-5.,-12.85,6.5));
#1060=CARTESIAN_POINT('',(-7.,-14.35,5.));
#1061=CARTESIAN_POINT('Origin',(-7.,-14.35,6.5));
#1062=CARTESIAN_POINT('',(7.,-14.35,5.));
#1063=CARTESIAN_POINT('',(-5.,-14.35,5.));
#1064=CARTESIAN_POINT('',(7.,-12.85,6.5));
#1065=CARTESIAN_POINT('Origin',(7.,-14.35,6.5));
#1066=CARTESIAN_POINT('',(-5.,-12.85,6.5));
#1067=CARTESIAN_POINT('Origin',(2.30093721853564E-15,-8.575,7.5));
#1068=CARTESIAN_POINT('',(-0.783499999999998,-4.3,7.5));
#1069=CARTESIAN_POINT('',(-0.783499999999998,-8.575,7.5));
#1070=CARTESIAN_POINT('Origin',(1.82631687550838E-15,-4.3,7.5));
#1071=CARTESIAN_POINT('Origin',(1.82631687550838E-15,-4.3,7.5));
#1072=CARTESIAN_POINT('Origin',(4.21884749357559E-15,-24.5,7.5));
#1073=CARTESIAN_POINT('',(-2.19999999999999,-25.,7.5));
#1074=CARTESIAN_POINT('Origin',(4.44089209850063E-15,-25.,7.5));
#1075=CARTESIAN_POINT('',(-1.19999999999999,-24.,7.5));
#1076=CARTESIAN_POINT('',(-1.7,-24.5,7.5));
#1077=CARTESIAN_POINT('Origin',(3.99680288865056E-15,-24.,7.5));
#1078=CARTESIAN_POINT('Origin',(2.1094237467878E-15,-19.75,7.5));
#1079=CARTESIAN_POINT('',(-1.2,-16.85,7.5));
#1080=CARTESIAN_POINT('',(-1.2,-19.75,7.5));
#1081=CARTESIAN_POINT('',(0.663324958071081,-16.85,6.5));
#1082=CARTESIAN_POINT('Origin',(8.21565038222617E-16,-16.85,7.5));
#1083=CARTESIAN_POINT('',(-0.66332495807108,-16.85,6.5));
#1084=CARTESIAN_POINT('Ctrl Pts',(-0.66332495807108,-16.85,6.5));
#1085=CARTESIAN_POINT('Ctrl Pts',(-0.635569418244348,-16.85,6.48158905770819));
#1086=CARTESIAN_POINT('Ctrl Pts',(-0.60701008168903,-16.849661468114,6.46431118259223));
#1087=CARTESIAN_POINT('Ctrl Pts',(-0.400353785149594,-16.8457426199436,
6.35078501665432));
#1088=CARTESIAN_POINT('Ctrl Pts',(-0.196353857089517,-16.8366068747318,
6.3));
#1089=CARTESIAN_POINT('Ctrl Pts',(0.19635385708952,-16.8366068747318,6.3));
#1090=CARTESIAN_POINT('Ctrl Pts',(0.400353785149597,-16.8457426199436,6.35078501665432));
#1091=CARTESIAN_POINT('Ctrl Pts',(0.607010081689033,-16.849661468114,6.46431118259223));
#1092=CARTESIAN_POINT('Ctrl Pts',(0.63556941824435,-16.85,6.48158905770819));
#1093=CARTESIAN_POINT('Ctrl Pts',(0.663324958071081,-16.85,6.5));
#1094=CARTESIAN_POINT('Origin',(8.21565038222617E-16,-16.85,7.5));
#1095=CARTESIAN_POINT('Origin',(10.,-16.85,10.));
#1096=CARTESIAN_POINT('',(-7.,-16.85,6.5));
#1097=CARTESIAN_POINT('',(5.,-16.85,6.5));
#1098=CARTESIAN_POINT('',(-8.93933982822018,-16.85,6.06066017177982));
#1099=CARTESIAN_POINT('Origin',(-7.,-16.85,2.));
#1100=CARTESIAN_POINT('',(-5.,-16.85,10.));
#1101=CARTESIAN_POINT('',(-2.5,-16.85,12.5));
#1102=CARTESIAN_POINT('',(5.,-16.85,10.));
#1103=CARTESIAN_POINT('',(5.,-16.85,10.));
#1104=CARTESIAN_POINT('',(8.93933982822018,-16.85,6.06066017177982));
#1105=CARTESIAN_POINT('',(7.5,-16.85,7.5));
#1106=CARTESIAN_POINT('',(7.,-16.85,6.5));
#1107=CARTESIAN_POINT('Origin',(7.,-16.85,2.));
#1108=CARTESIAN_POINT('',(5.,-16.85,6.5));
#1109=CARTESIAN_POINT('Origin',(7.,-15.35,2.));
#1110=CARTESIAN_POINT('',(10.,-15.35,2.));
#1111=CARTESIAN_POINT('',(10.,-16.8277571465141,5.));
#1112=CARTESIAN_POINT('Ctrl Pts',(10.,-16.8277571465141,5.));
#1113=CARTESIAN_POINT('Ctrl Pts',(10.,-16.7848536956771,4.65160621198249));
#1114=CARTESIAN_POINT('Ctrl Pts',(10.,-16.6746088193487,4.2897660452638));
#1115=CARTESIAN_POINT('Ctrl Pts',(10.,-16.2686656997187,3.31310678141055));
#1116=CARTESIAN_POINT('Ctrl Pts',(10.,-15.7705671340987,2.59477174493083));
#1117=CARTESIAN_POINT('Ctrl Pts',(10.,-15.35,2.));
#1118=CARTESIAN_POINT('',(7.,-15.35,5.));
#1119=CARTESIAN_POINT('Origin',(7.,-15.35,2.));
#1120=CARTESIAN_POINT('Origin',(7.,-15.35,6.5));
#1121=CARTESIAN_POINT('Ctrl Pts',(8.93933982822018,-16.85,6.06066017177982));
#1122=CARTESIAN_POINT('Ctrl Pts',(9.03860418716091,-16.85,5.96139581283909));
#1123=CARTESIAN_POINT('Ctrl Pts',(9.15770662545629,-16.8473452500626,5.84229337454372));
#1124=CARTESIAN_POINT('Ctrl Pts',(9.48914556043146,-16.8376057322784,5.51085443956854));
#1125=CARTESIAN_POINT('Ctrl Pts',(9.7677538813977,-16.8277571465141,5.2322461186023));
#1126=CARTESIAN_POINT('Ctrl Pts',(10.,-16.8277571465141,5.));
#1127=CARTESIAN_POINT('Origin',(5.,-15.35,6.5));
#1128=CARTESIAN_POINT('',(-7.,-15.35,5.));
#1129=CARTESIAN_POINT('',(5.,-15.35,5.));
#1130=CARTESIAN_POINT('Origin',(-7.,-15.35,6.5));
#1131=CARTESIAN_POINT('Origin',(-7.,-15.35,2.));
#1132=CARTESIAN_POINT('',(-10.,-16.8277571465141,5.));
#1133=CARTESIAN_POINT('Ctrl Pts',(-10.,-16.8277571465141,5.));
#1134=CARTESIAN_POINT('Ctrl Pts',(-9.76775388139769,-16.8277571465141,5.23224611860231));
#1135=CARTESIAN_POINT('Ctrl Pts',(-9.48914556043146,-16.8376057322784,5.51085443956855));
#1136=CARTESIAN_POINT('Ctrl Pts',(-9.15770662545628,-16.8473452500626,5.84229337454372));
#1137=CARTESIAN_POINT('Ctrl Pts',(-9.03860418716091,-16.85,5.96139581283909));
#1138=CARTESIAN_POINT('Ctrl Pts',(-8.93933982822018,-16.85,6.06066017177982));
#1139=CARTESIAN_POINT('',(-10.,-15.35,2.));
#1140=CARTESIAN_POINT('Origin',(-7.,-15.35,2.));
#1141=CARTESIAN_POINT('Ctrl Pts',(-10.,-15.35,2.));
#1142=CARTESIAN_POINT('Ctrl Pts',(-10.,-15.7705671340987,2.59477174493083));
#1143=CARTESIAN_POINT('Ctrl Pts',(-10.,-16.2686656997187,3.31310678141055));
#1144=CARTESIAN_POINT('Ctrl Pts',(-10.,-16.6746088193487,4.2897660452638));
#1145=CARTESIAN_POINT('Ctrl Pts',(-10.,-16.7848536956771,4.6516062119825));
#1146=CARTESIAN_POINT('Ctrl Pts',(-10.,-16.8277571465141,5.));
#1147=CARTESIAN_POINT('Origin',(-7.00000000000001,5.07499999999999,2.));
#1148=CARTESIAN_POINT('',(-7.00000000000001,5.07499999999999,5.));
#1149=CARTESIAN_POINT('',(-10.,-14.35,2.));
#1150=CARTESIAN_POINT('Origin',(-7.,-14.35,2.));
#1151=CARTESIAN_POINT('',(-10.,5.07499999999999,2.));
#1152=CARTESIAN_POINT('Origin',(-1.11022302462516E-15,-14.85,5.));
#1153=CARTESIAN_POINT('',(7.,-19.925,5.));
#1154=CARTESIAN_POINT('Origin',(7.,-19.925,2.));
#1155=CARTESIAN_POINT('',(10.,-14.35,2.));
#1156=CARTESIAN_POINT('',(10.,-19.925,2.));
#1157=CARTESIAN_POINT('Origin',(7.,-14.35,2.));
#1158=CARTESIAN_POINT('Origin',(-7.,-14.35,2.));
#1159=CARTESIAN_POINT('',(-10.,-12.8722428534859,5.));
#1160=CARTESIAN_POINT('Ctrl Pts',(-10.,-12.8722428534859,5.));
#1161=CARTESIAN_POINT('Ctrl Pts',(-10.,-12.9151463043229,4.6516062119825));
#1162=CARTESIAN_POINT('Ctrl Pts',(-10.,-13.0253911806513,4.2897660452638));
#1163=CARTESIAN_POINT('Ctrl Pts',(-10.,-13.4313343002813,3.31310678141054));
#1164=CARTESIAN_POINT('Ctrl Pts',(-10.,-13.9294328659013,2.59477174493083));
#1165=CARTESIAN_POINT('Ctrl Pts',(-10.,-14.35,2.));
#1166=CARTESIAN_POINT('',(-8.93933982822018,-12.85,6.06066017177982));
#1167=CARTESIAN_POINT('Origin',(-7.,-12.85,2.));
#1168=CARTESIAN_POINT('Ctrl Pts',(-8.93933982822018,-12.85,6.06066017177982));
#1169=CARTESIAN_POINT('Ctrl Pts',(-9.03860418716091,-12.85,5.96139581283909));
#1170=CARTESIAN_POINT('Ctrl Pts',(-9.15770662545628,-12.8526547499374,5.84229337454372));
#1171=CARTESIAN_POINT('Ctrl Pts',(-9.48914556043146,-12.8623942677216,5.51085443956854));
#1172=CARTESIAN_POINT('Ctrl Pts',(-9.76775388139769,-12.8722428534859,5.23224611860231));
#1173=CARTESIAN_POINT('Ctrl Pts',(-10.,-12.8722428534859,5.));
#1174=CARTESIAN_POINT('Origin',(7.,-14.35,2.));
#1175=CARTESIAN_POINT('',(8.93933982822017,-12.85,6.06066017177982));
#1176=CARTESIAN_POINT('',(10.,-12.8722428534859,5.));
#1177=CARTESIAN_POINT('Ctrl Pts',(10.,-12.8722428534859,5.));
#1178=CARTESIAN_POINT('Ctrl Pts',(9.76775388139769,-12.8722428534859,5.23224611860231));
#1179=CARTESIAN_POINT('Ctrl Pts',(9.48914556043145,-12.8623942677216,5.51085443956855));
#1180=CARTESIAN_POINT('Ctrl Pts',(9.15770662545627,-12.8526547499374,5.84229337454373));
#1181=CARTESIAN_POINT('Ctrl Pts',(9.03860418716091,-12.85,5.96139581283909));
#1182=CARTESIAN_POINT('Ctrl Pts',(8.93933982822017,-12.85,6.06066017177983));
#1183=CARTESIAN_POINT('Origin',(7.,-12.85,2.));
#1184=CARTESIAN_POINT('Ctrl Pts',(10.,-14.35,2.));
#1185=CARTESIAN_POINT('Ctrl Pts',(10.,-13.9294328659012,2.59477174493083));
#1186=CARTESIAN_POINT('Ctrl Pts',(10.,-13.4313343002813,3.31310678141055));
#1187=CARTESIAN_POINT('Ctrl Pts',(10.,-13.0253911806513,4.2897660452638));
#1188=CARTESIAN_POINT('Ctrl Pts',(10.,-12.9151463043229,4.65160621198249));
#1189=CARTESIAN_POINT('Ctrl Pts',(10.,-12.8722428534859,5.));
#1190=CARTESIAN_POINT('Origin',(10.,-25.,0.));
#1191=CARTESIAN_POINT('',(9.99999999999999,20.,5.));
#1192=CARTESIAN_POINT('',(10.,-12.5,5.));
#1193=CARTESIAN_POINT('',(10.,-20.,5.));
#1194=CARTESIAN_POINT('',(10.,-12.5,5.));
#1195=CARTESIAN_POINT('',(10.,-20.,0.));
#1196=CARTESIAN_POINT('',(10.,-20.,0.));
#1197=CARTESIAN_POINT('',(9.99999999999999,20.,0.));
#1198=CARTESIAN_POINT('',(10.,-25.,0.));
#1199=CARTESIAN_POINT('',(9.99999999999999,20.,0.));
#1200=CARTESIAN_POINT('Origin',(-10.,25.,0.));
#1201=CARTESIAN_POINT('',(-10.,-20.,5.));
#1202=CARTESIAN_POINT('',(-10.,12.5,5.));
#1203=CARTESIAN_POINT('',(-10.,20.,5.));
#1204=CARTESIAN_POINT('',(-10.,12.5,5.));
#1205=CARTESIAN_POINT('',(-10.,20.,0.));
#1206=CARTESIAN_POINT('',(-10.,20.,0.));
#1207=CARTESIAN_POINT('',(-10.,-20.,0.));
#1208=CARTESIAN_POINT('',(-10.,25.,0.));
#1209=CARTESIAN_POINT('',(-10.,-20.,0.));
#1210=CARTESIAN_POINT('Origin',(-10.,-12.85,10.));
#1211=CARTESIAN_POINT('',(5.,-12.85,10.));
#1212=CARTESIAN_POINT('',(2.5,-12.85,12.5));
#1213=CARTESIAN_POINT('',(-5.,-12.85,10.));
#1214=CARTESIAN_POINT('',(-5.,-12.85,10.));
#1215=CARTESIAN_POINT('',(-7.5,-12.85,7.5));
#1216=CARTESIAN_POINT('Origin',(7.5,-12.5,7.5));
#1217=CARTESIAN_POINT('',(4.99999999999999,25.,10.));
#1218=CARTESIAN_POINT('Origin',(4.99999999999999,20.,10.));
#1219=CARTESIAN_POINT('',(5.,0.,10.));
#1220=CARTESIAN_POINT('',(5.,-12.5,10.));
#1221=CARTESIAN_POINT('',(5.,-12.5,10.));
#1222=CARTESIAN_POINT('Origin',(7.5,-12.5,7.5));
#1223=CARTESIAN_POINT('',(5.00000000000001,-25.,10.));
#1224=CARTESIAN_POINT('',(5.,-12.5,10.));
#1225=CARTESIAN_POINT('Origin',(5.,-20.,10.));
#1226=CARTESIAN_POINT('Origin',(-7.50000000000001,12.5,7.5));
#1227=CARTESIAN_POINT('',(-5.,-1.11022302462516E-15,10.));
#1228=CARTESIAN_POINT('',(-5.00000000000001,12.5,10.));
#1229=CARTESIAN_POINT('',(-5.00000000000001,25.,10.));
#1230=CARTESIAN_POINT('',(-5.00000000000001,12.5,10.));
#1231=CARTESIAN_POINT('Origin',(-5.00000000000001,20.,10.));
#1232=CARTESIAN_POINT('Origin',(-1.11022302462516E-15,-8.88178419700125E-15,
10.));
#1233=CARTESIAN_POINT('Origin',(0.,0.,10.));
#1234=CARTESIAN_POINT('Origin',(0.,0.,8.7));
#1235=CARTESIAN_POINT('Origin',(0.,0.,10.));
#1236=CARTESIAN_POINT('',(-2.4,-2.93915231795365E-16,7.4));
#1237=CARTESIAN_POINT('',(-3.7,-4.53119315684521E-16,8.7));
#1238=CARTESIAN_POINT('',(2.4,0.,7.4));
#1239=CARTESIAN_POINT('Origin',(0.,0.,7.4));
#1240=CARTESIAN_POINT('Origin',(0.,0.,7.4));
#1241=CARTESIAN_POINT('Origin',(-1.11022302462516E-15,-8.88178419700125E-15,
10.));
#1242=CARTESIAN_POINT('',(0.999999999999995,25.,10.));
#1243=CARTESIAN_POINT('',(9.99999999999999,25.,10.));
#1244=CARTESIAN_POINT('',(0.999999999999996,22.,10.));
#1245=CARTESIAN_POINT('',(0.999999999999995,25.,10.));
#1246=CARTESIAN_POINT('',(-1.,22.,10.));
#1247=CARTESIAN_POINT('Origin',(-4.71844785465692E-15,19.1715728752538,
10.));
#1248=CARTESIAN_POINT('',(-1.,25.,10.));
#1249=CARTESIAN_POINT('',(-1.,22.,10.));
#1250=CARTESIAN_POINT('',(9.99999999999999,25.,10.));
#1251=CARTESIAN_POINT('Origin',(-1.11022302462516E-15,-8.88178419700125E-15,
10.));
#1252=CARTESIAN_POINT('',(-5.,-25.,10.));
#1253=CARTESIAN_POINT('',(-5.00000000000001,12.5,10.));
#1254=CARTESIAN_POINT('',(-10.,-25.,10.));
#1255=CARTESIAN_POINT('Origin',(5.,-20.,0.));
#1256=CARTESIAN_POINT('',(5.00000000000001,-25.,0.));
#1257=CARTESIAN_POINT('',(5.00000000000001,-25.,0.));
#1258=CARTESIAN_POINT('Origin',(5.,-20.,0.));
#1259=CARTESIAN_POINT('Origin',(-5.,-20.,0.));
#1260=CARTESIAN_POINT('Origin',(-5.,-20.,10.));
#1261=CARTESIAN_POINT('',(-5.,-25.,0.));
#1262=CARTESIAN_POINT('Origin',(-5.,-20.,0.));
#1263=CARTESIAN_POINT('',(-5.,-25.,0.));
#1264=CARTESIAN_POINT('Origin',(-7.50000000000001,12.5,7.5));
#1265=CARTESIAN_POINT('Origin',(4.99999999999999,20.,0.));
#1266=CARTESIAN_POINT('',(4.99999999999999,25.,0.));
#1267=CARTESIAN_POINT('Origin',(4.99999999999999,20.,0.));
#1268=CARTESIAN_POINT('',(4.99999999999999,25.,0.));
#1269=CARTESIAN_POINT('Origin',(-5.00000000000001,20.,0.));
#1270=CARTESIAN_POINT('',(-5.00000000000001,25.,0.));
#1271=CARTESIAN_POINT('',(-5.00000000000001,25.,0.));
#1272=CARTESIAN_POINT('Origin',(-5.00000000000001,20.,0.));
#1273=CARTESIAN_POINT('Origin',(-1.,25.,0.));
#1274=CARTESIAN_POINT('',(-1.,25.,0.));
#1275=CARTESIAN_POINT('',(-1.,25.,0.));
#1276=CARTESIAN_POINT('',(9.99999999999999,25.,0.));
#1277=CARTESIAN_POINT('Origin',(-10.,-25.,0.));
#1278=CARTESIAN_POINT('',(-10.,-25.,0.));
#1279=CARTESIAN_POINT('Origin',(9.99999999999999,25.,0.));
#1280=CARTESIAN_POINT('',(0.999999999999995,25.,0.));
#1281=CARTESIAN_POINT('',(9.99999999999999,25.,0.));
#1282=CARTESIAN_POINT('',(0.999999999999995,25.,0.));
#1283=CARTESIAN_POINT('Origin',(0.,0.,0.));
#1284=CARTESIAN_POINT('',(2.4,2.93915231795365E-16,0.));
#1285=CARTESIAN_POINT('',(2.4,2.93915231795365E-16,0.));
#1286=CARTESIAN_POINT('Origin',(0.,0.,0.));
#1287=CARTESIAN_POINT('Origin',(-1.,22.,0.));
#1288=CARTESIAN_POINT('',(-1.,22.,0.));
#1289=CARTESIAN_POINT('',(-1.,22.,0.));
#1290=CARTESIAN_POINT('',(-1.,22.,0.));
#1291=CARTESIAN_POINT('Origin',(-4.71844785465692E-15,19.1715728752538,
0.));
#1292=CARTESIAN_POINT('',(0.999999999999996,22.,0.));
#1293=CARTESIAN_POINT('Origin',(-4.71844785465692E-15,19.1715728752538,
0.));
#1294=CARTESIAN_POINT('',(0.999999999999996,22.,0.));
#1295=CARTESIAN_POINT('Origin',(0.999999999999995,25.,0.));
#1296=CARTESIAN_POINT('',(0.999999999999995,25.,0.));
#1297=CARTESIAN_POINT('Origin',(-1.11022302462516E-15,-8.88178419700125E-15,
0.));
#1298=UNCERTAINTY_MEASURE_WITH_UNIT(LENGTH_MEASURE(0.01),#1302,
'DISTANCE_ACCURACY_VALUE',
'Maximum model space distance between geometric entities at asserted c
onnectivities');
#1299=UNCERTAINTY_MEASURE_WITH_UNIT(LENGTH_MEASURE(0.01),#1302,
'DISTANCE_ACCURACY_VALUE',
'Maximum model space distance between geometric entities at asserted c
onnectivities');
#1300=(
GEOMETRIC_REPRESENTATION_CONTEXT(3)
GLOBAL_UNCERTAINTY_ASSIGNED_CONTEXT((#1298))
GLOBAL_UNIT_ASSIGNED_CONTEXT((#1302,#1304,#1305))
REPRESENTATION_CONTEXT('','3D')
);
#1301=(
GEOMETRIC_REPRESENTATION_CONTEXT(3)
GLOBAL_UNCERTAINTY_ASSIGNED_CONTEXT((#1299))
GLOBAL_UNIT_ASSIGNED_CONTEXT((#1302,#1304,#1305))
REPRESENTATION_CONTEXT('','3D')
);
#1302=(
LENGTH_UNIT()
NAMED_UNIT(*)
SI_UNIT(.MILLI.,.METRE.)
);
#1303=(
LENGTH_UNIT()
NAMED_UNIT(*)
SI_UNIT(.CENTI.,.METRE.)
);
#1304=(
NAMED_UNIT(*)
PLANE_ANGLE_UNIT()
SI_UNIT($,.RADIAN.)
);
#1305=(
NAMED_UNIT(*)
SI_UNIT($,.STERADIAN.)
SOLID_ANGLE_UNIT()
);
#1306=SHAPE_DEFINITION_REPRESENTATION(#1307,#1308);
#1307=PRODUCT_DEFINITION_SHAPE('',$,#1310);
#1308=SHAPE_REPRESENTATION('',(#730),#1300);
#1309=PRODUCT_DEFINITION_CONTEXT('part definition',#1314,'design');
#1310=PRODUCT_DEFINITION('CAP','CAP',#1311,#1309);
#1311=PRODUCT_DEFINITION_FORMATION('',$,#1316);
#1312=PRODUCT_RELATED_PRODUCT_CATEGORY('CAP','CAP',(#1316));
#1313=APPLICATION_PROTOCOL_DEFINITION('international standard',
'automotive_design',2009,#1314);
#1314=APPLICATION_CONTEXT(
'Core Data for Automotive Mechanical Design Process');
#1315=PRODUCT_CONTEXT('part definition',#1314,'mechanical');
#1316=PRODUCT('CAP','CAP',$,(#1315));
#1317=PRESENTATION_STYLE_ASSIGNMENT((#1318));
#1318=SURFACE_STYLE_USAGE(.BOTH.,#1321);
#1319=SURFACE_STYLE_RENDERING_WITH_PROPERTIES($,#1325,(#1320));
#1320=SURFACE_STYLE_TRANSPARENT(0.);
#1321=SURFACE_SIDE_STYLE('',(#1322,#1319));
#1322=SURFACE_STYLE_FILL_AREA(#1323);
#1323=FILL_AREA_STYLE('',(#1324));
#1324=FILL_AREA_STYLE_COLOUR('',#1325);
#1325=COLOUR_RGB('',0.749019607843137,0.749019607843137,0.749019607843137);
ENDSEC;
END-ISO-10303-21;
